<svg width="512" height="512" viewBox="0 0 512 512" fill="none" xmlns="http://www.w3.org/2000/svg">
  <rect width="512" height="512" rx="112" fill="#2F76DF"/>
  <path d="M154 262C213 247 247 213 262 154C277 213 311 247 370 262C311 277 277 311 262 370C247 311 213 277 154 262Z" fill="white"/>
  <path d="M128 150C156 143 172 127 179 99C186 127 202 143 230 150C202 157 186 173 179 201C172 173 156 157 128 150Z" fill="#DCEBFF"/>
  <path d="M300 382C323 376 337 362 343 339C349 362 363 376 386 382C363 388 349 402 343 425C337 402 323 388 300 382Z" fill="#DCEBFF"/>
</svg>
